<mxfile host="app.diagrams.net" modified="2021-05-07T11:53:43.347Z" agent="5.0 (Macintosh; Intel Mac OS X 10_15_7) AppleWebKit/537.36 (KHTML, like Gecko) Chrome/90.0.4430.93 Safari/537.36" etag="LykoRdsjj526wSYq1GxA" version="14.5.3" type="github">
  <diagram id="yUAJJJ6pCVC8MLU7LD5B" name="Page-1">
    <mxGraphModel dx="1632" dy="1157" grid="1" gridSize="10" guides="1" tooltips="1" connect="1" arrows="1" fold="1" page="1" pageScale="1" pageWidth="827" pageHeight="1169" math="0" shadow="0">
      <root>
        <mxCell id="0" />
        <mxCell id="1" parent="0" />
        <mxCell id="xgz9Fu2UuUWootMACIx9-3" value="" style="edgeStyle=orthogonalEdgeStyle;rounded=0;orthogonalLoop=1;jettySize=auto;html=1;" edge="1" parent="1" source="xgz9Fu2UuUWootMACIx9-1" target="xgz9Fu2UuUWootMACIx9-2">
          <mxGeometry relative="1" as="geometry" />
        </mxCell>
        <mxCell id="xgz9Fu2UuUWootMACIx9-1" value="Register user with your platform" style="rounded=0;whiteSpace=wrap;html=1;fillColor=#f5f5f5;strokeColor=#666666;fontColor=#333333;" vertex="1" parent="1">
          <mxGeometry x="50" y="260" width="120" height="60" as="geometry" />
        </mxCell>
        <mxCell id="xgz9Fu2UuUWootMACIx9-5" value="" style="edgeStyle=orthogonalEdgeStyle;rounded=0;orthogonalLoop=1;jettySize=auto;html=1;" edge="1" parent="1" source="xgz9Fu2UuUWootMACIx9-2" target="xgz9Fu2UuUWootMACIx9-4">
          <mxGeometry relative="1" as="geometry" />
        </mxCell>
        <mxCell id="xgz9Fu2UuUWootMACIx9-2" value="Generate UUID for user" style="whiteSpace=wrap;html=1;rounded=0;fillColor=#f5f5f5;strokeColor=#666666;fontColor=#333333;" vertex="1" parent="1">
          <mxGeometry x="190" y="260" width="120" height="60" as="geometry" />
        </mxCell>
        <mxCell id="xgz9Fu2UuUWootMACIx9-9" value="" style="edgeStyle=orthogonalEdgeStyle;rounded=0;orthogonalLoop=1;jettySize=auto;html=1;" edge="1" parent="1" source="xgz9Fu2UuUWootMACIx9-4" target="xgz9Fu2UuUWootMACIx9-8">
          <mxGeometry relative="1" as="geometry" />
        </mxCell>
        <mxCell id="xgz9Fu2UuUWootMACIx9-4" value="Start widget, using the UUID as the external_id" style="whiteSpace=wrap;html=1;rounded=0;fillColor=#f5f5f5;strokeColor=#666666;fontColor=#333333;" vertex="1" parent="1">
          <mxGeometry x="330" y="260" width="120" height="60" as="geometry" />
        </mxCell>
        <mxCell id="xgz9Fu2UuUWootMACIx9-11" value="" style="edgeStyle=orthogonalEdgeStyle;rounded=0;orthogonalLoop=1;jettySize=auto;html=1;" edge="1" parent="1" source="xgz9Fu2UuUWootMACIx9-8" target="xgz9Fu2UuUWootMACIx9-10">
          <mxGeometry relative="1" as="geometry" />
        </mxCell>
        <mxCell id="xgz9Fu2UuUWootMACIx9-14" value="Yes" style="edgeLabel;html=1;align=center;verticalAlign=middle;resizable=0;points=[];" vertex="1" connectable="0" parent="xgz9Fu2UuUWootMACIx9-11">
          <mxGeometry x="0.0333" y="-1" relative="1" as="geometry">
            <mxPoint as="offset" />
          </mxGeometry>
        </mxCell>
        <mxCell id="xgz9Fu2UuUWootMACIx9-22" value="" style="edgeStyle=orthogonalEdgeStyle;rounded=0;orthogonalLoop=1;jettySize=auto;html=1;" edge="1" parent="1" source="xgz9Fu2UuUWootMACIx9-8" target="xgz9Fu2UuUWootMACIx9-21">
          <mxGeometry relative="1" as="geometry" />
        </mxCell>
        <mxCell id="xgz9Fu2UuUWootMACIx9-36" value="No" style="edgeLabel;html=1;align=center;verticalAlign=middle;resizable=0;points=[];" vertex="1" connectable="0" parent="xgz9Fu2UuUWootMACIx9-22">
          <mxGeometry x="-0.1206" y="-3" relative="1" as="geometry">
            <mxPoint as="offset" />
          </mxGeometry>
        </mxCell>
        <mxCell id="xgz9Fu2UuUWootMACIx9-8" value="User Completes process" style="rhombus;whiteSpace=wrap;html=1;rounded=0;fillColor=#ffe6cc;strokeColor=#d79b00;" vertex="1" parent="1">
          <mxGeometry x="470" y="250" width="80" height="80" as="geometry" />
        </mxCell>
        <mxCell id="xgz9Fu2UuUWootMACIx9-13" value="" style="edgeStyle=orthogonalEdgeStyle;rounded=0;orthogonalLoop=1;jettySize=auto;html=1;" edge="1" parent="1" source="xgz9Fu2UuUWootMACIx9-10" target="xgz9Fu2UuUWootMACIx9-12">
          <mxGeometry relative="1" as="geometry" />
        </mxCell>
        <mxCell id="xgz9Fu2UuUWootMACIx9-10" value="Receive Success: Link_id, institution, and external_id" style="whiteSpace=wrap;html=1;rounded=0;" vertex="1" parent="1">
          <mxGeometry x="580" y="260" width="120" height="60" as="geometry" />
        </mxCell>
        <mxCell id="xgz9Fu2UuUWootMACIx9-12" value="Store Belvo response in your DB" style="whiteSpace=wrap;html=1;rounded=0;" vertex="1" parent="1">
          <mxGeometry x="720" y="260" width="120" height="60" as="geometry" />
        </mxCell>
        <mxCell id="xgz9Fu2UuUWootMACIx9-26" value="" style="edgeStyle=orthogonalEdgeStyle;rounded=0;orthogonalLoop=1;jettySize=auto;html=1;" edge="1" parent="1" source="xgz9Fu2UuUWootMACIx9-21" target="xgz9Fu2UuUWootMACIx9-25">
          <mxGeometry relative="1" as="geometry" />
        </mxCell>
        <mxCell id="xgz9Fu2UuUWootMACIx9-35" value="No" style="edgeLabel;html=1;align=center;verticalAlign=middle;resizable=0;points=[];" vertex="1" connectable="0" parent="xgz9Fu2UuUWootMACIx9-26">
          <mxGeometry x="-0.0876" y="3" relative="1" as="geometry">
            <mxPoint as="offset" />
          </mxGeometry>
        </mxCell>
        <mxCell id="xgz9Fu2UuUWootMACIx9-28" value="" style="edgeStyle=orthogonalEdgeStyle;rounded=0;orthogonalLoop=1;jettySize=auto;html=1;" edge="1" parent="1" source="xgz9Fu2UuUWootMACIx9-21" target="xgz9Fu2UuUWootMACIx9-27">
          <mxGeometry relative="1" as="geometry" />
        </mxCell>
        <mxCell id="xgz9Fu2UuUWootMACIx9-37" value="Yes" style="edgeLabel;html=1;align=center;verticalAlign=middle;resizable=0;points=[];" vertex="1" connectable="0" parent="xgz9Fu2UuUWootMACIx9-28">
          <mxGeometry x="-0.1088" y="5" relative="1" as="geometry">
            <mxPoint as="offset" />
          </mxGeometry>
        </mxCell>
        <mxCell id="xgz9Fu2UuUWootMACIx9-21" value="Recevied Callback" style="rhombus;whiteSpace=wrap;html=1;rounded=0;fillColor=#ffe6cc;strokeColor=#d79b00;" vertex="1" parent="1">
          <mxGeometry x="470" y="410" width="80" height="80" as="geometry" />
        </mxCell>
        <mxCell id="xgz9Fu2UuUWootMACIx9-25" value="Link not created" style="whiteSpace=wrap;html=1;rounded=0;" vertex="1" parent="1">
          <mxGeometry x="450" y="580" width="120" height="60" as="geometry" />
        </mxCell>
        <mxCell id="xgz9Fu2UuUWootMACIx9-30" value="" style="edgeStyle=orthogonalEdgeStyle;rounded=0;orthogonalLoop=1;jettySize=auto;html=1;" edge="1" parent="1" source="xgz9Fu2UuUWootMACIx9-27" target="xgz9Fu2UuUWootMACIx9-29">
          <mxGeometry relative="1" as="geometry" />
        </mxCell>
        <mxCell id="xgz9Fu2UuUWootMACIx9-39" value="No" style="edgeLabel;html=1;align=center;verticalAlign=middle;resizable=0;points=[];" vertex="1" connectable="0" parent="xgz9Fu2UuUWootMACIx9-30">
          <mxGeometry x="-0.0614" y="-4" relative="1" as="geometry">
            <mxPoint as="offset" />
          </mxGeometry>
        </mxCell>
        <mxCell id="xgz9Fu2UuUWootMACIx9-32" value="" style="edgeStyle=orthogonalEdgeStyle;rounded=0;orthogonalLoop=1;jettySize=auto;html=1;" edge="1" parent="1" source="xgz9Fu2UuUWootMACIx9-27" target="xgz9Fu2UuUWootMACIx9-31">
          <mxGeometry relative="1" as="geometry" />
        </mxCell>
        <mxCell id="xgz9Fu2UuUWootMACIx9-38" value="Yes" style="edgeLabel;html=1;align=center;verticalAlign=middle;resizable=0;points=[];" vertex="1" connectable="0" parent="xgz9Fu2UuUWootMACIx9-32">
          <mxGeometry x="-0.1255" y="4" relative="1" as="geometry">
            <mxPoint as="offset" />
          </mxGeometry>
        </mxCell>
        <mxCell id="xgz9Fu2UuUWootMACIx9-27" value="!= institution" style="rhombus;whiteSpace=wrap;html=1;rounded=0;fillColor=#ffe6cc;strokeColor=#d79b00;" vertex="1" parent="1">
          <mxGeometry x="630" y="410" width="80" height="80" as="geometry" />
        </mxCell>
        <mxCell id="xgz9Fu2UuUWootMACIx9-29" value="Link not created" style="whiteSpace=wrap;html=1;rounded=0;" vertex="1" parent="1">
          <mxGeometry x="610" y="580" width="120" height="60" as="geometry" />
        </mxCell>
        <mxCell id="xgz9Fu2UuUWootMACIx9-34" value="" style="edgeStyle=orthogonalEdgeStyle;rounded=0;orthogonalLoop=1;jettySize=auto;html=1;" edge="1" parent="1" source="xgz9Fu2UuUWootMACIx9-31" target="xgz9Fu2UuUWootMACIx9-33">
          <mxGeometry relative="1" as="geometry" />
        </mxCell>
        <mxCell id="xgz9Fu2UuUWootMACIx9-31" value="Wait X seconds" style="whiteSpace=wrap;html=1;rounded=0;" vertex="1" parent="1">
          <mxGeometry x="770" y="420" width="120" height="60" as="geometry" />
        </mxCell>
        <mxCell id="xgz9Fu2UuUWootMACIx9-41" value="" style="edgeStyle=orthogonalEdgeStyle;rounded=0;orthogonalLoop=1;jettySize=auto;html=1;" edge="1" parent="1" source="xgz9Fu2UuUWootMACIx9-33" target="xgz9Fu2UuUWootMACIx9-40">
          <mxGeometry relative="1" as="geometry" />
        </mxCell>
        <mxCell id="xgz9Fu2UuUWootMACIx9-33" value="Make call to /links/?external_id=UUID" style="whiteSpace=wrap;html=1;rounded=0;" vertex="1" parent="1">
          <mxGeometry x="950" y="420" width="120" height="60" as="geometry" />
        </mxCell>
        <mxCell id="xgz9Fu2UuUWootMACIx9-43" value="" style="edgeStyle=orthogonalEdgeStyle;rounded=0;orthogonalLoop=1;jettySize=auto;html=1;" edge="1" parent="1" source="xgz9Fu2UuUWootMACIx9-40" target="xgz9Fu2UuUWootMACIx9-42">
          <mxGeometry relative="1" as="geometry" />
        </mxCell>
        <mxCell id="xgz9Fu2UuUWootMACIx9-40" value="Receive all links associated to the UUID" style="whiteSpace=wrap;html=1;rounded=0;" vertex="1" parent="1">
          <mxGeometry x="1150" y="420" width="120" height="60" as="geometry" />
        </mxCell>
        <mxCell id="xgz9Fu2UuUWootMACIx9-42" value="Check Status of Links" style="whiteSpace=wrap;html=1;rounded=0;" vertex="1" parent="1">
          <mxGeometry x="1350" y="420" width="120" height="60" as="geometry" />
        </mxCell>
      </root>
    </mxGraphModel>
  </diagram>
</mxfile>
